<svg width="21" height="38" viewBox="0 0 21 38" fill="none" xmlns="http://www.w3.org/2000/svg">
<path d="M6.76756 12.5708C6.76756 10.8388 8.42648 9.71954 10.9938 9.71954C13.0525 9.71954 15.1624 10.6297 16.8836 11.8224C17.3366 12.1363 17.9721 11.9971 18.2375 11.5242L20.0517 8.29209C20.2557 7.92857 20.1746 7.47635 19.8533 7.20256C17.983 5.60856 15.2981 4.67244 12.8213 4.39664V0.890625C12.8213 0.398777 12.4074 0 11.8969 0H8.81572C8.30524 0 7.89135 0.398777 7.89135 0.890625V4.58909C3.37529 5.57546 0.396375 8.73918 0.396375 12.6521C0.396375 21.8206 14.6289 20.8763 14.6289 25.2258C14.6289 26.6971 13.3724 28.2805 10.6138 28.2805C8.245 28.2805 5.76609 27.1019 3.8468 25.617C3.43777 25.3006 2.83909 25.371 2.52503 25.7759L0.184156 28.7941C-0.0952332 29.1544 -0.0527125 29.6593 0.28445 29.9703C2.13695 31.6788 4.84842 33.0322 7.89128 33.5308V37.1094C7.89128 37.6012 8.30516 38 8.81564 38H11.8969C12.4073 38 12.8212 37.6012 12.8212 37.1094V33.5886C17.8837 32.8304 21 29.1959 21 24.9409C21.0001 16.0578 6.76756 17.2439 6.76756 12.5708Z" fill="#CC2929"/>
</svg>
