<svg width="16" height="13" viewBox="0 0 16 13" fill="none" xmlns="http://www.w3.org/2000/svg">
<path d="M15.5594 0.0303857C15.2603 0.136667 0.49881 5.39189 0.207528 5.49554C-0.03941 5.58338 -0.0941885 5.79857 0.198833 5.91628C0.547502 6.05769 3.49945 7.25226 3.49945 7.25226L5.45582 8.04366C5.45582 8.04366 14.8794 1.05367 15.0064 0.958812C15.1351 0.863949 15.2829 1.04226 15.1899 1.14415C15.0968 1.24691 8.34604 8.62162 8.34604 8.62162V8.62338L7.95302 9.0652L8.47385 9.34803C8.47385 9.34803 12.517 11.5474 12.8057 11.7038C13.0587 11.8408 13.3865 11.7275 13.4596 11.4104C13.5456 11.0362 15.9333 0.640846 15.9863 0.408959C16.055 0.107681 15.8576 -0.0758958 15.5594 0.0303857ZM5.43843 12.7912C5.43843 13.0073 5.55929 13.0679 5.72624 12.915C5.94448 12.7139 8.20431 10.6656 8.20431 10.6656L5.43843 9.22154V12.7912Z" fill="white"/>
</svg>
