<svg width="37" height="38" viewBox="0 0 37 38" fill="none" xmlns="http://www.w3.org/2000/svg">
<path d="M32.9043 0H7.7591C5.50686 0 3.66337 1.81482 3.66337 4.03572V28.8125C3.66337 29.3734 3.78251 29.9083 3.99432 30.3942L0.729351 33.595L0.745922 33.6129C-0.251928 34.6288 -0.251928 36.2446 0.765791 37.2409C1.77691 38.247 3.42179 38.2502 4.45439 37.267L4.46766 37.2849L8.99362 32.8481H32.9027C35.1532 32.8481 37 31.0333 37 28.8108V4.03572C36.9999 1.81482 35.1548 0 32.9043 0ZM3.38205 36.2887C2.93195 36.7322 2.19717 36.7339 1.73879 36.2838C1.287 35.8386 1.28539 35.1098 1.73879 34.6646C2.19218 34.2211 2.92697 34.2178 3.38036 34.6629C3.83383 35.1114 3.83383 35.837 3.38205 36.2887ZM33.3097 29.3016H12.611L19.7947 22.2607L27.0081 22.2396L28.9823 14.972L28.1979 14.1975L24.2842 18.062L20.4533 14.2921L24.3703 10.4292L23.5875 9.65306L16.2185 11.6049L16.1937 18.5153L16.1539 18.4713L7.07563 27.3727V7.4844H33.3113L33.3097 29.3016Z" fill="#CC2929"/>
</svg>
