<svg width="22" height="22" viewBox="0 0 22 22" fill="none" xmlns="http://www.w3.org/2000/svg">
<path fill-rule="evenodd" clip-rule="evenodd" d="M9.25613 16.8146C4.93064 16.8146 1.42419 13.3692 1.42419 9.11224C1.42419 4.85528 4.93064 1.40297 9.25613 1.40297C13.5816 1.40297 17.0888 4.85528 17.0888 9.11224C17.0888 13.3692 13.5816 16.8146 9.25613 16.8146ZM21.7911 20.8034L16.1116 15.2123C17.5983 13.5961 18.5123 11.4642 18.5123 9.11224C18.5123 4.07816 14.3683 0 9.25613 0C4.14394 0 0 4.07816 0 9.11224C0 14.1394 4.14394 18.2176 9.25613 18.2176C11.465 18.2176 13.4909 17.4543 15.0821 16.182L20.7844 21.7937C21.0629 22.0688 21.5133 22.0688 21.7911 21.7937C22.0696 21.5255 22.0696 21.0785 21.7911 20.8034Z" fill="white"/>
</svg>
