<svg width="16" height="16" viewBox="0 0 16 16" fill="none" xmlns="http://www.w3.org/2000/svg">
<path fill-rule="evenodd" clip-rule="evenodd" d="M13.5 3C13.2235 3 13 2.7765 13 2.5C13 2.2235 13.2235 2 13.5 2C13.7765 2 14 2.2235 14 2.5C14 2.7765 13.7765 3 13.5 3ZM8 14C4.6865 14 2 11.314 2 8C2 4.6865 4.6865 2 8 2C11.3135 2 14 4.6865 14 8C14 11.314 11.3135 14 8 14ZM13.5 14C13.2235 14 13 13.7765 13 13.5C13 13.2235 13.2235 13 13.5 13C13.7765 13 14 13.2235 14 13.5C14 13.7765 13.7765 14 13.5 14ZM2.5 14C2.2235 14 2 13.7765 2 13.5C2 13.2235 2.2235 13 2.5 13C2.7765 13 3 13.2235 3 13.5C3 13.7765 2.7765 14 2.5 14ZM2.5 2C2.7765 2 3 2.2235 3 2.5C3 2.7765 2.7765 3 2.5 3C2.2235 3 2 2.7765 2 2.5C2 2.2235 2.2235 2 2.5 2ZM14 0H2C0.8955 0 0 0.8955 0 2V14C0 15.1045 0.8955 16 2 16H14C15.1045 16 16 15.1045 16 14V2C16 0.8955 15.1045 0 14 0ZM8 11C6.3435 11 5 9.6565 5 8C5 6.3435 6.3435 5 8 5C9.6565 5 11 6.3435 11 8C11 9.6565 9.6565 11 8 11ZM8 3C5.239 3 3 5.239 3 8C3 10.7615 5.239 13 8 13C10.761 13 13 10.7615 13 8C13 5.239 10.761 3 8 3ZM8 6C6.8955 6 6 6.8955 6 8C6 9.1045 6.8955 10 8 10C9.1045 10 10 9.1045 10 8C10 6.8955 9.1045 6 8 6Z" fill="black"/>
</svg>
