<svg width="48" height="32" viewBox="0 0 48 32" fill="none" xmlns="http://www.w3.org/2000/svg">
<path d="M12.8 19.2C9.2704 19.2 6.4 22.0704 6.4 25.6C6.4 29.1296 9.2704 32 12.8 32C16.3296 32 19.2 29.1296 19.2 25.6C19.2 22.0704 16.3296 19.2 12.8 19.2Z" fill="#CC2929"/>
<path d="M35.2 19.2C31.6704 19.2 28.8 22.0704 28.8 25.6C28.8 29.1296 31.6704 32 35.2 32C38.7296 32 41.6 29.1296 41.6 25.6C41.6 22.0704 38.7296 19.2 35.2 19.2Z" fill="#CC2929"/>
<path d="M45.6592 8.4896L37.1904 1.4928C36.0256 0.5296 34.5488 0 33.0336 0H12.904C11.3888 0 9.992 0.592 8.9472 1.6H15.2C15.6416 1.6 16 1.9584 16 2.4C16 2.8416 15.6416 3.2 15.2 3.2H0.8C0.3584 3.2 0 3.5584 0 4C0 4.4416 0.3584 4.8 0.8 4.8H6.9648L5.3504 8H10.4C10.8416 8 11.2 8.3584 11.2 8.8C11.2 9.2416 10.8416 9.6 10.4 9.6H0.8C0.3584 9.6 0 9.9584 0 10.4C0 10.8416 0.3584 11.2 0.8 11.2H3.7376L2.1232 14.4H7.2C7.6416 14.4 8 14.7584 8 15.2C8 15.6416 7.6416 16 7.2 16H0.8C0.3584 16 0 16.3584 0 16.8C0 17.1552 0.2336 17.4448 0.5536 17.5504C0.2 18.2976 0 19.12 0 19.9456C0 22.328 1.5312 24.464 3.8112 25.2608C4.0384 25.3408 4.2912 25.3136 4.4976 25.1856C4.704 25.0576 4.84 24.8448 4.8704 24.6048C5.3696 20.6112 8.7792 17.6 12.8032 17.6C16.8992 17.6 20.3968 20.7952 20.7664 24.872C20.8032 25.2832 21.1488 25.6 21.5632 25.6H26.4448C26.8592 25.6 27.2048 25.2848 27.2416 24.872C27.608 20.7952 31.104 17.6 35.2 17.6C38.9376 17.6 42.1392 20.1456 42.9856 23.792C43.0608 24.12 43.3344 24.3648 43.6688 24.4048C44.0064 24.448 44.328 24.272 44.4784 23.9712L46.4016 20.16C47.4496 18.0864 48 15.7648 48 13.4464C48 11.5264 47.1472 9.7184 45.6592 8.4896ZM42.4576 13.5984L31.2576 14.3984C31.2384 14.4 31.2208 14.4 31.2 14.4C30.9712 14.4 30.752 14.3024 30.6 14.1296C30.4336 13.9424 30.3664 13.6896 30.416 13.4432L32.016 5.4432C32.0704 5.1728 32.2576 4.9504 32.5152 4.8528C32.7712 4.7552 33.0608 4.7952 33.28 4.96L42.88 12.16C43.1472 12.36 43.2624 12.7056 43.168 13.0256C43.0752 13.3456 42.792 13.5744 42.4576 13.5984Z" fill="#CC2929"/>
</svg>
